<svg xmlns="http://www.w3.org/2000/svg" xmlns:xlink="http://www.w3.org/1999/xlink" width="136.074" height="31.521" viewBox="0 0 136.074 31.521">
  <defs>
    <linearGradient id="linear-gradient" x1="0.5" x2="0.5" y2="1" gradientUnits="objectBoundingBox">
      <stop offset="0" stop-color="#fe511a"/>
      <stop offset="1" stop-color="#f83873"/>
    </linearGradient>
  </defs>
  <g id="ic_logohome" transform="translate(12401 -111.365)">
    <path id="Union_27" d="M21.761,31.6a14.6,14.6,0,0,1-2.93-.908,16.409,16.409,0,0,1-2.638-1.438,15.868,15.868,0,0,1-2.282-1.882,14.829,14.829,0,0,1-1.882-2.3,15.587,15.587,0,0,1-1.417-2.693,15.14,15.14,0,0,1-.887-3,17.511,17.511,0,0,1,0-6.456,15.715,15.715,0,0,1,2.3-5.688,14.829,14.829,0,0,1,1.882-2.3,15.183,15.183,0,0,1,2.282-1.882A15.962,15.962,0,0,1,18.83,1.611,14.6,14.6,0,0,1,21.761.7,16.466,16.466,0,0,1,24.929.4a15.176,15.176,0,0,1,2.714.249,13.154,13.154,0,0,1,2.541.746A17.047,17.047,0,0,1,32.5,2.541,15.232,15.232,0,0,1,34.542,4a15.565,15.565,0,0,1,1.752,1.73,14.715,14.715,0,0,1,1.438,1.936,2.757,2.757,0,0,1,.151.26l-7.321,4.217a6.281,6.281,0,0,0-1.092-1.568,6.8,6.8,0,0,0-1.8-1.33,5.746,5.746,0,0,0-2.757-.606,6.835,6.835,0,0,0-4.963,2.109,7.4,7.4,0,0,0-1.5,2.379,8.433,8.433,0,0,0,0,6.056,7.519,7.519,0,0,0,1.5,2.379,6.835,6.835,0,0,0,4.963,2.109,5.746,5.746,0,0,0,2.757-.606,7.438,7.438,0,0,0,1.8-1.33,6.281,6.281,0,0,0,1.092-1.568l7.321,4.217c-.054.087-.1.173-.151.26a15.748,15.748,0,0,1-1.438,1.936,16.541,16.541,0,0,1-1.752,1.73A16.036,16.036,0,0,1,32.5,29.78a16.444,16.444,0,0,1-2.314,1.146,12.934,12.934,0,0,1-2.541.746,15.268,15.268,0,0,1-2.714.249A18.413,18.413,0,0,1,21.761,31.6Zm16.815-8.986-7.688-4.434a.205.205,0,0,1-.076-.292.17.17,0,0,1,.076-.076l7.6-4.3a.213.213,0,0,1,.292.087.183.183,0,0,1,.032.108l.087,8.716a.217.217,0,0,1-.216.216h0A.32.32,0,0,1,38.575,22.611Zm-5.591-6.585-2.1-1.211a.205.205,0,0,1-.076-.292.17.17,0,0,1,.076-.076l7.6-4.3a.183.183,0,0,1,.108-.032.217.217,0,0,1,.216.216l.022,2.347a.011.011,0,0,0-.011.011Zm0,0Z" transform="translate(-12410.425 110.965)" fill="url(#linear-gradient)"/>
    <path id="Path_5080" data-name="Path 5080" d="M6.711-27.164a1.891,1.891,0,0,0,.912-.2,2.312,2.312,0,0,0,.592-.44,2.066,2.066,0,0,0,.416-.64l2.88.24a4.135,4.135,0,0,1-.568,1.36,5.261,5.261,0,0,1-1.056,1.208,5.277,5.277,0,0,1-1.44.864,4.572,4.572,0,0,1-1.736.328,5.039,5.039,0,0,1-2.016-.4,5.163,5.163,0,0,1-1.624-1.1,4.989,4.989,0,0,1-1.088-1.648,5.347,5.347,0,0,1-.392-2.056A5.347,5.347,0,0,1,1.982-31.7,4.989,4.989,0,0,1,3.07-33.349a5.163,5.163,0,0,1,1.624-1.1,5.039,5.039,0,0,1,2.016-.4,4.572,4.572,0,0,1,1.736.328,5.277,5.277,0,0,1,1.44.864,5.261,5.261,0,0,1,1.056,1.208,4.135,4.135,0,0,1,.568,1.36l-2.88.24a2.066,2.066,0,0,0-.416-.64,2.311,2.311,0,0,0-.592-.44,1.891,1.891,0,0,0-.912-.2,2.246,2.246,0,0,0-.9.184,2.229,2.229,0,0,0-.736.512,2.458,2.458,0,0,0-.5.784,2.649,2.649,0,0,0-.184,1,2.649,2.649,0,0,0,.184,1,2.458,2.458,0,0,0,.5.784,2.229,2.229,0,0,0,.736.512A2.246,2.246,0,0,0,6.711-27.164Zm9.265,2.56h-2.56V-34.685h2.56Zm2.3-7.361h2.56V-24.6H18.28Zm-.08-2a1.225,1.225,0,0,1,.376-.912,1.347,1.347,0,0,1,.984-.368,1.347,1.347,0,0,1,.984.368,1.225,1.225,0,0,1,.376.912,1.225,1.225,0,0,1-.376.912,1.347,1.347,0,0,1-.984.368,1.347,1.347,0,0,1-.984-.368A1.225,1.225,0,0,1,18.2-33.965Zm8.545,1.84A4.162,4.162,0,0,1,27.817-32a3.607,3.607,0,0,1,.848.336,3.144,3.144,0,0,1,.648.48,3.9,3.9,0,0,1,.472.544,4.175,4.175,0,0,1,.64,1.472l-2.48.24a1.268,1.268,0,0,0-.272-.4A1.669,1.669,0,0,0,27.3-29.6a1.126,1.126,0,0,0-.552-.128,1.293,1.293,0,0,0-.952.416,1.406,1.406,0,0,0-.408,1.024,1.406,1.406,0,0,0,.408,1.024,1.293,1.293,0,0,0,.952.416,1.187,1.187,0,0,0,.552-.12,1.306,1.306,0,0,0,.376-.28,1.268,1.268,0,0,0,.272-.4l2.48.24a4.171,4.171,0,0,1-.64,1.488,3.58,3.58,0,0,1-.472.536,3.321,3.321,0,0,1-.648.472,3.606,3.606,0,0,1-.848.336,4.162,4.162,0,0,1-1.072.128,4.025,4.025,0,0,1-1.56-.3,3.858,3.858,0,0,1-1.24-.816,3.747,3.747,0,0,1-.824-1.216,3.824,3.824,0,0,1-.3-1.512,3.824,3.824,0,0,1,.3-1.512,3.747,3.747,0,0,1,.824-1.216,3.858,3.858,0,0,1,1.24-.816A4.025,4.025,0,0,1,26.745-32.125ZM36.81-24.6l-1.92-3.12v3.12h-2.56V-34.685h2.56v5.6l1.68-2.88h2.88l-2.24,3.52,2.48,3.84Zm6.865-1.2a1.25,1.25,0,0,1-.112.52,1.447,1.447,0,0,1-.3.432,1.447,1.447,0,0,1-.432.3,1.25,1.25,0,0,1-.52.112,1.25,1.25,0,0,1-.52-.112,1.447,1.447,0,0,1-.432-.3,1.447,1.447,0,0,1-.3-.432,1.25,1.25,0,0,1-.112-.52,1.25,1.25,0,0,1,.112-.52,1.447,1.447,0,0,1,.3-.432,1.447,1.447,0,0,1,.432-.3,1.25,1.25,0,0,1,.52-.112,1.25,1.25,0,0,1,.52.112,1.447,1.447,0,0,1,.432.3,1.447,1.447,0,0,1,.3.432A1.25,1.25,0,0,1,43.674-25.8ZM48.7-29.4v4.8H45.9V-34.685h2.72L51.5-28.6l2.88-6.081H57.1V-24.6H54.3v-4.8l-2.24,4.8h-1.12Zm14.145-2.72a3.682,3.682,0,0,1,1.312.224,2.868,2.868,0,0,1,1.008.632,2.887,2.887,0,0,1,.648.968,3.146,3.146,0,0,1,.232,1.216v4.48H64.2a2.554,2.554,0,0,1-.16-.272q-.064-.112-.128-.232t-.112-.216a3.7,3.7,0,0,1-.624.448,3.174,3.174,0,0,1-.688.3,2.766,2.766,0,0,1-.848.128,2.971,2.971,0,0,1-1.032-.168,2.3,2.3,0,0,1-.776-.464,2.1,2.1,0,0,1-.5-.688,2.027,2.027,0,0,1-.176-.84,2.117,2.117,0,0,1,.224-.96,2.048,2.048,0,0,1,.736-.784,4.276,4.276,0,0,1,1.336-.536,8.728,8.728,0,0,1,2.024-.2.937.937,0,0,0-.208-.648.661.661,0,0,0-.512-.232.822.822,0,0,0-.4.088.706.706,0,0,0-.24.2.794.794,0,0,0-.16.272l-2.48-.24a2.86,2.86,0,0,1,.544-1.232,3.1,3.1,0,0,1,.424-.464,2.738,2.738,0,0,1,.592-.4,3.47,3.47,0,0,1,.784-.28A4.445,4.445,0,0,1,62.844-32.125Zm-.4,5.761a.986.986,0,0,0,.728-.32,1.1,1.1,0,0,0,.312-.8v-.24a5.72,5.72,0,0,0-.888.056,1.736,1.736,0,0,0-.536.16.585.585,0,0,0-.264.256.757.757,0,0,0-.072.328.518.518,0,0,0,.176.4A.789.789,0,0,0,62.444-26.364Zm9.745-5.761a1.955,1.955,0,0,1,.32.024,2.339,2.339,0,0,1,.256.056q.128.048.224.08v2.64q-.112-.032-.256-.08-.128-.032-.288-.056a2.265,2.265,0,0,0-.336-.024,1.212,1.212,0,0,0-.912.384,1.463,1.463,0,0,0-.368,1.056v3.44h-2.56v-7.361h1.84l.4.72a2.462,2.462,0,0,1,.448-.432,2.509,2.509,0,0,1,.528-.312A1.709,1.709,0,0,1,72.189-32.125ZM79.374-24.6l-1.92-3.12v3.12h-2.56V-34.685h2.56v5.6l1.68-2.88h2.88l-2.24,3.52,2.48,3.84Zm11.345-2.24a3.54,3.54,0,0,1-.432.88,3.267,3.267,0,0,1-.72.768,3.593,3.593,0,0,1-1.024.544,4.041,4.041,0,0,1-1.344.208,4.025,4.025,0,0,1-1.56-.3,3.858,3.858,0,0,1-1.24-.816,3.747,3.747,0,0,1-.824-1.216,3.824,3.824,0,0,1-.3-1.512,3.824,3.824,0,0,1,.3-1.512,3.747,3.747,0,0,1,.824-1.216,3.858,3.858,0,0,1,1.24-.816,4.025,4.025,0,0,1,1.56-.3,3.808,3.808,0,0,1,1.464.28,3.677,3.677,0,0,1,1.192.784,3.712,3.712,0,0,1,.808,1.192,3.766,3.766,0,0,1,.3,1.5,2.545,2.545,0,0,1-.016.3q-.016.136-.032.248l-.032.256H86a1.45,1.45,0,0,0,.24.48,1.357,1.357,0,0,0,.36.328,1.077,1.077,0,0,0,.6.152,1.258,1.258,0,0,0,.456-.072,1.028,1.028,0,0,0,.3-.168.753.753,0,0,0,.208-.24Zm-3.52-3.2a1.128,1.128,0,0,0-.808.312A1.248,1.248,0,0,0,86-29h2.4a1.248,1.248,0,0,0-.392-.728A1.128,1.128,0,0,0,87.2-30.044Zm6.385.4h-1.04V-31.8h.48a.778.778,0,0,0,.88-.88v-1.04h2.24v1.76h1.52v2.32h-1.52v1.76a1.083,1.083,0,0,0,.256.76.814.814,0,0,0,.624.28q.128,0,.224-.008a1.562,1.562,0,0,0,.176-.024.912.912,0,0,0,.16-.048v2.24q-.176.064-.368.128a3.466,3.466,0,0,1-.384.08,2.951,2.951,0,0,1-.448.032,2.773,2.773,0,0,1-2.064-.744,2.91,2.91,0,0,1-.736-2.136Z" transform="translate(-12362.59 156.97)"/>
  </g>
</svg>
